<svg id="Layer_1" data-name="Layer 1" xmlns="http://www.w3.org/2000/svg" viewBox="0 0 24 24"><defs><style>.cls-1{fill:none;stroke:#000;stroke-miterlimit:10;stroke-width:1.91px}</style></defs><path class="cls-1" d="M1.48 1.5h13.36v8.59H1.48zM2.43 10.09h11.45V22.5H2.43zM15.8 22.5H.52"/><path class="cls-1" d="M10.24 17.56a2.08 2.08 0 0 1-4.16 0c0-1.78 2.08-3.86 2.08-3.86s2.08 2.08 2.08 3.86zM5.3 4.36v2.87M8.16 4.36v2.87M11.02 4.36v2.87M13.89 10.09h2.86A1.92 1.92 0 0 1 18.66 12v7.64a1.91 1.91 0 0 0 1.91 1.91 1.92 1.92 0 0 0 1.91-1.91V6.27l-3.82-3.82"/><path class="cls-1" d="M21.13 4.93a1.87 1.87 0 0 0-.56 1.34 1.92 1.92 0 0 0 1.91 1.91"/></svg>