<svg xmlns="http://www.w3.org/2000/svg" viewBox="0 0 24 24"><path d="M20.331 9.509h-2.012l-1.307-4.972a4.778 4.778 0 0 0-4.642-3.531H7.579a4.741 4.741 0 0 0-4.74 4l-1.8 11.672a3.059 3.059 0 0 0 .706 2.462A3.148 3.148 0 0 0 3.8 20.207a3.25 3.25 0 0 0 6.428.039H13.9a3.251 3.251 0 0 0 6.424 0 2.644 2.644 0 0 0 2.663-2.62v-5.5a2.644 2.644 0 0 0-2.656-2.617zm-9.843-7.473h1.882A3.747 3.747 0 0 1 16.015 4.8l1.238 4.71h-6.282a1.723 1.723 0 0 1-1.682-2.1zm-3.47 19.928a2.234 2.234 0 1 1 2.233-2.234 2.236 2.236 0 0 1-2.233 2.234zm10.1 0a2.234 2.234 0 1 1 2.233-2.234 2.236 2.236 0 0 1-2.237 2.234zm4.849-4.338a1.613 1.613 0 0 1-1.626 1.589 3.264 3.264 0 0 0-6.447 0h-3.653a3.324 3.324 0 0 0-3.223-2.749A3.324 3.324 0 0 0 3.8 19.185a2.12 2.12 0 0 1-1.269-.712 2.031 2.031 0 0 1-.471-1.634l1.8-11.672a3.715 3.715 0 0 1 3.719-3.131h1.853l-1.149 5.15a2.755 2.755 0 0 0 2.688 3.354h9.36a1.612 1.612 0 0 1 1.632 1.589z"/></svg>